name C:\Users\Nicos\Desktop\Gil_twoSteps\Study2\ExperimentalData\IK_Splined\Splined_80_meshInts_p02_maxVel_01.mot
datacolumns 38
datarows 12
range 0.05600000 0.06447089
endheader
                time	         pelvis_tilt	         pelvis_list	     pelvis_rotation	           pelvis_tx	           pelvis_ty	           pelvis_tz	       hip_flexion_r	     hip_adduction_r	      hip_rotation_r	        knee_angle_r	       ankle_angle_r	    subtalar_angle_r	         mtp_angle_r	       hip_flexion_l	     hip_adduction_l	      hip_rotation_l	        knee_angle_l	       ankle_angle_l	    subtalar_angle_l	         mtp_angle_l	    lumbar_extension	      lumbar_bending	     lumbar_rotation	          arm_flex_r	           arm_add_r	           arm_rot_r	        elbow_flex_r	           pro_sup_r	        wrist_flex_r	         wrist_dev_r	          arm_flex_l	           arm_add_l	           arm_rot_l	        elbow_flex_l	           pro_sup_l	        wrist_flex_l	         wrist_dev_l	
          0.05600000	          4.99930159	         -1.46373305	         -0.25776319	         -1.87121466	          1.00263233	          0.28681654	         29.24026972	         -0.78652057	         -2.37914183	        -32.26936812	        -11.66866834	        -12.48869523	          3.45205773	         19.23433415	         -1.10140012	        -11.55804968	       -133.53295380	        -15.01130516	        -13.52683631	         11.45083895	        -26.72652122	          7.05731329	         -5.71782780	        -21.09382145	        -14.33369720	         -4.39168812	        101.58231768	         65.50953991	         -8.37888651	          6.78380357	        -15.45028272	        -14.55228340	         -2.22961543	         58.51448841	         69.95154621	         -3.37224652	         11.19789332	
          0.05643414	          5.09169400	         -1.47833807	         -0.43270259	         -1.86695229	          1.00247393	          0.28721023	         28.88608331	         -0.70535236	         -2.32317171	        -32.20487625	        -11.53874736	        -12.42151476	          3.35055896	         19.42224651	         -1.24588331	        -11.70665730	       -133.73375929	        -14.87861394	        -13.42778868	         11.49145737	        -26.82388094	          6.94228483	         -5.68786811	        -20.57696704	        -14.33692472	         -3.90733522	        101.61625647	         65.59106658	         -8.42783075	          6.84843933	        -15.77546791	        -14.54164141	         -2.32518527	         58.23398163	         69.90936529	         -3.35006927	         11.29701015	
          0.05780586	          5.37877538	         -1.52015029	         -0.97892995	         -1.85347359	          1.00196130	          0.28844461	         27.77299730	         -0.45811893	         -2.15173377	        -32.01362699	        -11.08059668	        -12.20509176	          3.01940823	         20.02301427	         -1.69689192	        -12.17132865	       -134.36376147	        -14.46400671	        -13.12361917	         11.61684696	        -27.12150126	          6.57697264	         -5.60227213	        -18.94509086	        -14.34075418	         -2.38091657	        101.71827306	         65.84154668	         -8.58402583	          7.05395198	        -16.80818078	        -14.50131834	         -2.64451367	         57.35336339	         69.79248000	         -3.27865465	         11.61320458	
          0.05880000	          5.58146277	         -1.54550372	         -1.36825829	         -1.84369387	          1.00157599	          0.28932921	         26.97325153	         -0.28920056	         -2.03258905	        -31.88895421	        -10.69824870	        -12.04367711	          2.76885996	         20.46634418	         -2.01783121	        -12.50323654	       -134.81502359	        -14.16890585	        -12.91366624	         11.70452490	        -27.32619965	          6.30982279	         -5.54903968	        -17.76425068	        -14.33616311	         -1.28045930	        101.78731593	         66.01457168	         -8.69886565	          7.20421714	        -17.56202720	        -14.46497866	         -2.89422166	         56.72210865	         69.72632738	         -3.22535259	         11.84555061	
          0.05883544	          5.58859524	         -1.54631971	         -1.38203212	         -1.84334502	          1.00156201	          0.28936058	         26.94486385	         -0.28335754	         -2.02842014	        -31.88475283	        -10.68376947	        -12.03784342	          2.75975553	         20.48228921	         -2.02917195	        -12.51499109	       -134.83101471	        -14.15848146	        -12.90637250	         11.70759587	        -27.33330678	          6.30025309	         -5.54728103	        -17.72219015	        -14.33586758	         -1.24134356	        101.78970231	         66.02058494	         -8.70298752	          7.20959614	        -17.58899220	        -14.46356263	         -2.90343155	         56.69973248	         69.72429676	         -3.22342473	         11.85388777	
          0.05926959	          5.67540244	         -1.55578585	         -1.55013682	         -1.83907104	          1.00138930	          0.28974385	         26.59789638	         -0.21285575	         -1.97779412	        -31.83474281	        -10.50144719	        -11.96591749	          2.64724652	         20.67843585	         -2.16748688	        -12.65852324	       -135.02629771	        -14.03137613	        -12.81819854	         11.74488745	        -27.41922823	          6.18275237	         -5.52652579	        -17.20723859	        -14.33145113	         -0.76296419	        101.81851616	         66.09329368	         -8.75363823	          7.27560972	        -17.91980244	        -14.44551048	         -3.01804174	         56.42643993	         69.70139103	         -3.19964419	         11.95632345	
          0.06064130	          5.94235094	         -1.57868963	         -2.07359761	         -1.82555451	          1.00082427	          0.29094226	         25.51165756	         -0.00413527	         -1.82315256	        -31.69580222	         -9.86154252	        -11.73253886	          2.27932238	         21.30919068	         -2.59674939	        -13.10639639	       -135.63535431	        -13.63753847	        -12.55528137	         11.85849083	        -27.67588115	          5.80765504	         -5.47063997	        -15.58374289	        -14.30690558	          0.73796708	        101.90453046	         66.31028962	         -8.91575410	          7.48578308	        -18.97156282	        -14.37935747	         -3.40324704	         55.57369178	         69.65499990	         -3.12230314	         12.28400513	
          0.06163544	          6.12808683	         -1.58780251	         -2.44531347	         -1.81574629	          1.00039418	          0.29179790	         24.73520349	          0.13230262	         -1.71609660	        -31.61526087	         -9.33209965	        -11.55697290	          2.00023752	         21.77802317	         -2.89978539	        -13.42540657	       -136.06811604	        -13.36045310	        -12.38177348	         11.93641640	        -27.84630532	          5.53153936	         -5.43953594	        -14.41122501	        -14.27773998	          1.81367313	        101.96215659	         66.45370808	         -9.03538735	          7.63971793	        -19.74042412	        -14.32200292	         -3.70612739	         54.96745542	         69.64904547	         -3.06388867	         12.52562699	
          0.06167089	          6.13457833	         -1.58800014	         -2.45844212	         -1.81539641	          1.00037850	          0.29182819	         24.70770569	          0.13691677	         -1.71235736	        -31.61272938	         -9.31213775	        -11.55060579	          1.99008646	         21.79493589	         -2.91045460	        -13.43669007	       -136.08339607	        -13.35071697	        -12.37588065	         11.93912090	        -27.85211940	          5.52162093	         -5.43857546	        -14.36949606	        -14.27650611	          1.85180902	        101.96413875	         66.45858298	         -9.03968791	          7.64523229	        -19.76794320	        -14.31980207	         -3.71731719	         54.94604598	         69.64930233	         -3.06176586	         12.53430960	
          0.06210503	          6.21332964	         -1.58967204	         -2.61854757	         -1.81110968	          1.00018435	          0.29219802	         24.37197077	          0.19197012	         -1.66698718	        -31.58371308	         -9.06132589	        -11.47198448	          1.86459382	         22.00326266	         -3.04035815	        -13.57438964	       -136.26968117	        -13.23229890	        -12.30543415	         11.97181868	        -27.92180497	          5.39968623	         -5.42764868	        -13.85880110	        -14.26024832	          2.31764185	        101.98801693	         66.51688507	         -9.09257092	          7.71292919	        -20.10564536	        -14.29193769	         -3.85664995	         54.68501269	         69.65520557	         -3.03552657	         12.64105906	
          0.06347674	          6.45233896	         -1.58527751	         -3.11556229	         -1.79755176	          0.99954442	          0.29335090	         23.32526052	          0.34706838	         -1.52886309	        -31.51765599	         -8.18883487	        -11.21548929	          1.45366115	         22.67647185	         -3.44078724	        -14.00307240	       -136.84681125	        -12.86902990	        -12.10542446	         12.06963277	        -28.12233200	          5.00860550	         -5.40344465	        -12.25112268	        -14.19406575	          3.77231778	        102.05862702	         66.68273879	         -9.26226904	          7.92872855	        -21.18045606	        -14.19236522	         -4.32568567	         53.87607486	         69.70943143	         -2.94955615	         12.98337161	
          0.06447089	          6.61547480	         -1.57208020	         -3.46701784	         -1.78771248	          0.99905327	          0.29417069	         22.58127968	          0.44009515	         -1.43367949	        -31.49612754	         -7.47559423	        -11.02131716	          1.14156257	         23.17982848	         -3.72079883	        -14.30746268	       -137.25311817	        -12.61705117	        -11.98403617	         12.13491062	        -28.24751571	          4.71903728	         -5.39586561	        -11.09232080	        -14.13072784	          4.80821662	        102.10528675	         66.78376605	         -9.38789538	          8.08702833	        -21.96721574	        -14.10851187	         -4.69470201	         53.30639772	         69.78546810	         -2.88407316	         13.23653827	
